<svg id="svg" version="1.1" xmlns="http://www.w3.org/2000/svg" xmlns:xlink="http://www.w3.org/1999/xlink" width="400" height="300" viewBox="0, 0, 400,300"><g id="svgg"><path id="path0" d="M239.387 49.669 C 238.097 50.016,237.166 50.444,237.674 50.456 C 237.886 50.461,237.963 51.089,237.963 52.803 C 237.963 54.944,237.997 55.127,238.368 54.964 C 238.591 54.866,239.450 54.548,240.278 54.258 L 241.782 53.730 241.849 51.518 L 241.915 49.306 241.270 49.321 C 240.915 49.329,240.068 49.486,239.387 49.669 M109.207 71.654 C 109.624 71.842,110.223 72.018,110.538 72.044 C 110.853 72.070,111.111 72.151,111.111 72.223 C 111.111 72.295,111.293 72.361,111.516 72.369 C 111.739 72.378,112.208 72.463,112.558 72.560 C 113.061 72.699,113.194 72.657,113.194 72.363 C 113.194 72.142,112.983 71.976,112.674 71.955 C 111.980 71.909,111.774 71.873,111.227 71.707 C 110.972 71.630,110.243 71.509,109.606 71.438 L 108.449 71.310 109.207 71.654 M110.970 79.902 C 110.912 79.996,110.718 80.016,110.539 79.947 C 109.231 79.445,102.477 81.725,95.023 85.185 C 89.953 87.538,86.783 88.808,84.251 89.500 C 83.428 89.724,82.703 89.965,82.639 90.035 C 82.575 90.105,82.315 90.162,82.060 90.162 C 81.584 90.162,81.174 93.954,81.646 93.999 C 81.746 94.009,82.037 94.061,82.292 94.114 C 85.182 94.719,90.196 94.132,95.255 92.596 C 102.191 90.491,105.094 89.816,109.144 89.366 C 110.417 89.224,111.849 89.050,112.326 88.978 L 113.194 88.848 113.194 84.244 L 113.194 79.640 112.135 79.686 C 111.552 79.711,111.028 79.808,110.970 79.902 M203.550 98.207 C 201.812 99.816,198.099 103.677,199.317 102.608 L 199.906 102.091 199.826 102.839 C 199.782 103.251,199.614 104.972,199.453 106.664 C 199.120 110.153,198.937 110.061,201.156 107.523 C 201.824 106.759,203.165 105.302,204.137 104.285 C 205.108 103.268,205.653 102.643,205.348 102.896 C 204.794 103.356,204.794 103.356,205.029 102.894 C 205.159 102.639,205.334 101.545,205.418 100.463 C 205.502 99.381,205.632 98.053,205.705 97.512 C 205.888 96.172,205.672 96.242,203.550 98.207 M83.174 99.719 C 83.023 99.815,82.554 99.877,82.133 99.857 L 81.366 99.821 81.431 105.582 C 81.494 111.072,81.518 111.343,81.939 111.343 C 82.181 111.343,82.434 111.255,82.501 111.147 C 82.784 110.689,88.944 111.001,90.324 111.543 C 94.028 112.999,95.717 116.626,95.244 122.106 C 94.694 128.476,91.879 130.463,85.084 129.278 C 83.977 129.085,82.973 128.987,82.855 129.061 C 82.736 129.134,82.639 129.096,82.639 128.976 C 82.639 128.856,82.378 128.708,82.060 128.647 L 81.481 128.536 81.481 133.811 C 81.481 138.641,81.447 139.095,81.076 139.192 C 80.654 139.303,81.088 139.377,82.523 139.438 C 82.905 139.454,83.270 139.532,83.333 139.611 C 83.945 140.370,96.704 140.781,100.694 140.170 C 104.769 139.546,111.389 137.210,110.976 136.542 C 110.908 136.432,110.963 136.330,111.097 136.314 C 111.232 136.298,111.451 136.272,111.583 136.256 C 111.714 136.240,111.897 136.109,111.988 135.964 C 112.078 135.820,112.361 135.662,112.616 135.614 C 113.072 135.527,113.080 135.317,113.143 121.525 C 113.213 106.131,113.237 106.612,112.392 106.564 C 112.067 106.545,111.355 106.321,110.810 106.065 C 103.724 102.734,96.173 100.402,90.461 99.781 C 87.866 99.499,83.577 99.463,83.174 99.719 M248.148 106.838 C 246.302 107.118,243.724 107.477,242.419 107.635 L 240.046 107.922 240.046 109.753 C 240.046 111.530,240.061 111.580,240.567 111.471 C 240.854 111.409,242.911 110.948,245.139 110.447 C 247.367 109.946,249.554 109.467,250.000 109.384 C 251.583 109.088,251.852 108.831,251.852 107.613 C 251.852 106.200,252.061 106.244,248.148 106.838 M257.523 126.499 C 255.104 126.651,253.255 126.793,253.414 126.814 C 253.616 126.840,253.704 127.363,253.704 128.536 L 253.704 130.220 258.507 129.701 C 261.149 129.416,263.779 129.166,264.352 129.146 L 265.394 129.110 265.317 127.665 L 265.241 126.220 263.581 126.221 C 262.668 126.222,259.942 126.348,257.523 126.499 M103.472 142.735 C 103.027 142.785,101.620 142.937,100.347 143.074 C 94.661 143.684,82.639 146.370,82.639 147.031 C 82.639 147.151,82.544 147.191,82.428 147.119 C 81.891 146.787,81.481 147.293,81.481 148.287 L 81.481 149.302 83.854 149.130 C 91.388 148.585,98.508 149.033,103.508 150.368 C 105.673 150.946,110.701 152.852,111.329 153.333 C 111.591 153.533,111.621 153.518,111.467 153.263 C 111.249 152.902,111.460 152.997,112.558 153.757 L 113.194 154.198 113.194 148.453 L 113.194 142.708 108.738 142.676 C 106.288 142.658,103.918 142.684,103.472 142.735 M234.375 144.225 C 232.083 144.314,230.182 144.400,230.150 144.416 C 229.913 144.534,230.137 147.917,230.382 147.919 C 234.872 147.958,240.573 148.143,241.146 148.268 L 241.898 148.432 241.898 146.340 C 241.898 144.537,241.954 144.234,242.303 144.152 C 242.918 144.009,239.042 144.045,234.375 144.225 M112.837 161.328 C 112.704 161.462,112.287 161.587,111.911 161.606 C 108.930 161.758,100.373 164.728,94.708 167.577 C 92.009 168.934,92.351 169.027,96.410 168.042 C 101.469 166.814,110.264 165.405,112.332 165.491 C 113.154 165.525,113.229 165.294,113.147 162.989 C 113.099 161.665,113.005 161.160,112.837 161.328 M244.213 165.679 C 243.640 165.715,238.588 166.010,232.986 166.333 C 220.288 167.067,221.759 166.629,221.759 169.673 L 221.759 172.167 229.919 172.259 C 234.407 172.309,240.240 172.309,242.882 172.260 L 247.685 172.169 247.685 168.972 C 247.685 166.112,247.728 165.766,248.090 165.693 C 248.574 165.595,245.693 165.585,244.213 165.679 M129.511 185.884 C 129.457 185.972,129.314 187.096,129.193 188.384 C 129.072 189.671,128.895 190.850,128.800 191.004 C 128.677 191.203,128.754 191.232,129.071 191.104 C 130.666 190.463,134.509 191.143,135.353 192.217 C 136.000 193.040,136.043 193.013,136.478 191.517 C 137.544 187.851,135.877 185.906,131.565 185.782 C 130.489 185.751,129.565 185.797,129.511 185.884 M129.574 198.744 C 129.501 198.816,129.095 198.931,128.670 198.998 C 127.897 199.120,126.620 199.679,126.620 199.896 C 126.620 199.960,126.943 199.845,127.336 199.642 C 127.730 199.438,128.100 199.319,128.158 199.377 C 128.445 199.664,127.683 206.645,127.274 207.465 C 127.037 207.943,126.895 208.333,126.959 208.333 C 127.195 208.333,128.214 206.069,128.057 205.894 C 127.967 205.794,128.015 205.782,128.163 205.867 C 128.311 205.952,128.485 205.891,128.550 205.731 C 128.614 205.571,128.682 206.013,128.701 206.713 C 128.775 209.483,129.121 210.547,130.415 211.979 L 131.245 212.898 130.345 214.291 C 129.850 215.057,128.984 216.165,128.419 216.754 C 127.855 217.343,127.435 217.867,127.485 217.917 C 127.536 217.968,127.388 217.994,127.157 217.975 C 126.822 217.947,126.722 218.137,126.666 218.909 C 126.604 219.761,126.519 219.891,125.971 219.980 C 125.552 220.047,125.633 220.075,126.215 220.062 C 126.693 220.052,127.083 219.965,127.083 219.867 C 127.083 219.770,127.238 219.750,127.428 219.823 C 128.381 220.188,130.718 218.082,132.662 215.104 C 133.688 213.532,133.940 213.297,135.102 212.825 C 135.814 212.535,136.619 212.090,136.891 211.835 L 137.384 211.372 137.394 212.920 C 137.420 217.054,140.021 220.009,143.634 220.009 C 146.277 220.009,148.084 218.648,150.463 214.867 C 151.036 213.957,151.765 213.091,152.083 212.944 C 152.402 212.798,152.855 212.578,153.091 212.456 C 153.388 212.303,153.473 212.311,153.367 212.483 C 153.283 212.620,153.324 212.731,153.459 212.731 C 153.601 212.731,153.701 212.222,153.696 211.516 C 153.690 210.416,153.658 210.342,153.360 210.735 C 153.025 211.177,152.315 211.114,152.315 210.642 C 152.315 210.503,152.435 210.464,152.582 210.555 C 152.751 210.659,152.786 210.618,152.678 210.442 C 152.584 210.290,152.632 210.013,152.786 209.828 C 152.940 209.642,152.988 209.491,152.894 209.491 C 152.799 209.491,152.837 209.351,152.979 209.180 C 153.121 209.009,153.168 208.801,153.084 208.717 C 153.001 208.633,153.060 208.565,153.216 208.565 C 153.372 208.565,153.448 208.481,153.384 208.378 C 153.321 208.276,153.374 207.781,153.502 207.279 C 153.823 206.022,153.935 202.083,153.649 202.083 C 153.525 202.083,153.479 201.938,153.547 201.760 C 153.620 201.570,153.281 201.085,152.730 200.591 C 148.375 196.682,142.992 198.829,139.209 205.983 C 138.142 208.002,136.519 210.049,135.478 210.691 L 134.729 211.153 135.077 210.319 C 136.160 207.727,136.632 203.579,136.040 201.860 C 135.427 200.082,130.575 197.743,129.574 198.744 M134.483 204.242 C 134.491 205.604,133.756 208.225,132.897 209.901 L 132.471 210.729 132.034 210.062 C 130.949 208.403,131.638 203.989,133.231 202.396 L 133.854 201.773 134.164 202.333 C 134.335 202.641,134.478 203.500,134.483 204.242 M152.002 202.707 C 152.276 203.364,152.317 203.916,152.180 205.080 C 151.968 206.876,152.025 206.636,151.566 207.639 C 151.362 208.084,150.978 208.944,150.712 209.549 C 150.123 210.890,150.089 210.893,149.531 209.664 C 148.605 207.625,149.241 204.248,150.882 202.488 C 151.623 201.694,151.574 201.685,152.002 202.707 M147.072 210.482 C 147.425 211.204,147.968 211.994,148.278 212.238 C 148.589 212.483,148.843 212.781,148.843 212.902 C 148.843 213.660,145.105 218.056,144.460 218.056 C 142.493 218.056,143.210 210.638,145.558 206.713 L 146.181 205.671 146.305 207.420 C 146.394 208.676,146.610 209.539,147.072 210.482 M153.060 214.641 C 153.061 214.928,152.986 215.695,152.892 216.346 C 152.777 217.143,152.806 217.582,152.981 217.691 C 153.160 217.801,153.241 217.495,153.241 216.709 C 153.241 216.081,153.306 215.242,153.385 214.844 C 153.472 214.412,153.435 214.120,153.294 214.120 C 153.164 214.120,153.059 214.355,153.060 214.641 M325.856 222.906 C 325.927 223.176,325.223 225.043,324.107 227.542 C 323.081 229.844,322.176 232.072,322.097 232.493 C 321.815 233.997,323.369 237.277,323.742 235.965 C 323.874 235.500,323.921 235.491,324.570 235.815 C 326.677 236.866,330.191 232.860,330.508 229.045 C 330.766 225.928,329.341 225.839,326.892 228.819 L 326.131 229.745 327.070 227.790 C 328.298 225.233,328.321 224.307,327.183 223.233 C 326.250 222.353,325.674 222.211,325.856 222.906 M317.828 223.322 C 317.835 224.595,314.894 230.582,313.528 232.076 C 312.060 233.680,312.103 233.421,313.890 229.858 C 315.196 227.256,315.171 226.971,313.657 227.229 C 312.344 227.452,311.906 227.873,309.951 230.791 C 308.929 232.317,308.047 233.565,307.992 233.565 C 307.771 233.565,308.608 231.590,309.600 229.770 C 310.945 227.303,310.941 227.228,309.483 227.368 C 308.092 227.502,307.357 228.098,306.806 229.541 C 306.596 230.090,306.181 230.699,305.883 230.895 C 304.627 231.718,304.517 231.054,305.669 229.604 C 306.694 228.315,306.699 227.886,305.695 227.554 C 304.620 227.199,303.795 227.457,303.105 228.362 L 302.524 229.124 301.967 228.566 C 300.719 227.318,299.177 228.338,298.048 231.160 C 297.040 233.678,297.006 234.730,297.907 235.489 C 298.991 236.400,299.123 236.316,300.298 233.970 C 300.888 232.792,301.631 231.516,301.950 231.134 L 302.530 230.440 302.538 231.141 C 302.556 232.677,304.002 233.400,305.273 232.510 C 305.783 232.153,305.787 232.159,305.788 233.262 C 305.790 236.290,307.346 236.698,309.032 234.114 L 310.185 232.348 310.186 233.362 C 310.188 235.926,311.539 236.488,313.098 234.572 L 314.069 233.380 314.204 234.226 C 314.372 235.275,315.716 236.996,315.731 236.181 C 315.740 235.686,315.765 235.682,316.575 236.020 C 318.279 236.733,319.869 235.561,321.492 232.395 C 323.774 227.944,322.442 225.129,319.554 228.299 L 318.235 229.745 319.043 228.125 C 320.413 225.373,320.339 224.008,318.768 223.080 C 317.886 222.559,317.823 222.575,317.828 223.322 M283.722 224.048 C 283.809 224.379,282.418 228.071,282.076 228.417 C 282.043 228.451,281.624 228.315,281.146 228.115 C 279.510 227.432,278.018 228.444,276.379 231.347 C 275.621 232.690,275.088 233.260,275.305 232.494 C 276.671 227.683,272.163 226.467,269.779 231.004 C 268.796 232.875,268.153 233.451,268.535 232.120 C 269.848 227.540,264.717 227.054,262.720 231.569 C 262.361 232.382,262.084 232.664,261.439 232.877 C 260.308 233.250,260.305 233.199,261.353 231.120 L 262.279 229.282 261.785 228.877 C 260.635 227.934,259.512 228.494,258.568 230.481 C 255.060 237.864,254.499 241.045,256.609 241.575 C 258.651 242.087,262.270 236.744,261.257 234.712 C 260.920 234.038,260.927 233.995,261.410 233.817 C 261.863 233.649,261.943 233.735,262.174 234.645 C 262.882 237.433,265.566 237.792,267.090 235.302 C 267.430 234.747,267.948 234.181,268.240 234.044 C 268.934 233.721,268.981 233.728,268.981 234.166 C 268.981 237.152,272.695 237.643,274.196 234.856 C 274.832 233.676,275.231 233.783,275.231 235.134 C 275.231 238.121,276.653 237.864,279.280 234.403 L 279.961 233.506 280.244 234.614 C 280.651 236.212,281.292 236.798,282.122 236.332 C 282.689 236.015,286.096 231.619,286.107 231.192 C 286.122 230.580,285.054 231.233,283.912 232.533 C 282.075 234.625,282.104 234.341,284.124 230.455 C 286.344 226.183,286.438 225.184,284.729 224.006 C 283.976 223.487,283.580 223.503,283.722 224.048 M222.917 226.022 C 222.917 226.330,222.708 227.069,222.453 227.664 C 221.929 228.887,221.999 229.167,222.830 229.167 C 224.480 229.167,225.695 226.858,224.577 225.846 C 223.901 225.235,222.917 225.339,222.917 226.022 M342.557 227.353 C 342.067 227.884,341.667 228.204,341.667 228.064 C 341.667 227.567,340.927 227.083,340.166 227.083 C 339.241 227.083,338.456 227.907,337.544 229.833 C 336.285 232.493,333.027 235.141,332.548 233.893 C 332.301 233.249,332.377 233.151,334.173 231.799 C 337.682 229.158,338.303 227.040,335.673 226.687 C 333.248 226.362,330.214 229.508,329.911 232.663 C 329.640 235.479,333.208 236.224,335.676 233.867 L 336.515 233.066 336.666 233.670 C 336.798 234.193,337.982 235.182,338.481 235.184 C 338.576 235.185,338.952 234.526,339.317 233.720 C 340.096 232.003,341.714 229.411,341.799 229.745 C 341.831 229.873,341.919 230.256,341.994 230.597 C 342.353 232.232,343.732 232.397,345.260 230.989 C 346.677 229.683,346.629 228.739,345.202 229.861 C 343.959 230.839,343.853 230.147,345.021 228.678 C 345.985 227.466,346.043 226.920,345.240 226.615 C 344.091 226.178,343.489 226.343,342.557 227.353 M291.940 228.346 C 290.026 230.075,288.663 234.268,289.466 235.959 C 290.096 237.287,290.925 237.155,292.150 235.532 C 293.158 234.197,293.384 233.992,293.103 234.664 C 292.102 237.067,290.144 239.230,288.742 239.482 C 287.252 239.750,287.132 239.948,288.266 240.266 C 291.457 241.159,293.526 239.283,296.758 232.569 C 298.842 228.238,298.796 228.397,298.097 227.907 C 297.465 227.464,296.832 227.451,296.041 227.863 C 295.539 228.126,295.347 228.127,294.884 227.870 C 293.882 227.315,292.907 227.472,291.940 228.346 M335.573 228.877 C 335.239 229.359,334.482 230.220,333.890 230.791 L 332.814 231.829 333.363 230.828 C 334.017 229.637,335.810 227.631,336.027 227.848 C 336.111 227.932,335.907 228.395,335.573 228.877 M225.381 228.742 C 224.782 229.668,224.682 230.505,225.096 231.136 C 225.539 231.813,225.926 231.887,225.926 231.294 C 225.926 231.064,226.079 230.673,226.266 230.426 C 226.738 229.802,226.702 229.081,226.176 228.604 C 225.750 228.220,225.715 228.226,225.381 228.742 M246.427 229.641 C 244.246 231.651,242.682 235.964,243.617 237.391 C 244.266 238.381,245.035 238.095,246.521 236.309 L 247.801 234.770 247.923 235.730 C 248.130 237.361,249.380 237.889,250.465 236.804 C 251.019 236.250,254.167 232.032,254.167 231.844 C 254.167 231.302,253.118 231.960,251.893 233.271 C 250.263 235.016,250.267 234.975,252.009 232.141 C 252.687 231.039,253.241 229.984,253.241 229.796 C 253.241 228.961,251.497 228.428,250.628 228.998 C 250.170 229.297,250.010 229.302,249.525 229.034 C 248.454 228.441,247.533 228.621,246.427 229.641 M319.440 230.999 C 318.292 233.207,316.833 234.962,316.453 234.593 C 316.191 234.340,317.575 232.132,319.363 229.950 C 320.545 228.507,320.569 228.830,319.440 230.999 M327.330 230.930 C 325.865 233.646,324.306 235.357,324.306 234.249 C 324.306 233.647,327.926 228.775,328.182 229.031 C 328.244 229.092,327.860 229.947,327.330 230.930 M231.282 230.960 C 229.590 232.742,229.582 232.746,230.298 231.572 C 231.136 230.196,231.128 230.235,230.655 229.762 C 229.314 228.421,227.373 230.141,226.175 233.731 C 225.542 235.627,225.553 236.596,226.215 237.202 C 227.290 238.185,227.586 238.082,228.540 236.393 C 229.524 234.650,230.481 233.358,230.204 234.144 C 229.712 235.543,229.792 236.532,230.445 237.138 C 231.432 238.052,231.787 237.907,232.823 236.169 C 234.763 232.915,235.898 231.710,234.960 233.898 C 234.083 235.944,234.487 237.731,235.827 237.731 C 236.886 237.731,241.195 232.361,240.254 232.214 C 239.891 232.157,239.466 232.467,238.688 233.357 C 236.715 235.611,236.724 235.604,237.294 234.606 C 237.585 234.097,238.271 232.954,238.819 232.066 C 240.237 229.768,240.067 229.167,238.001 229.167 C 237.154 229.167,236.952 229.306,235.407 230.961 C 233.767 232.716,233.746 232.729,234.458 231.572 C 235.323 230.164,235.341 229.996,234.671 229.527 C 233.654 228.815,233.094 229.052,231.282 230.960 M294.438 230.498 C 293.333 232.473,291.594 234.851,291.487 234.532 C 291.216 233.716,293.948 229.167,294.709 229.167 C 295.155 229.167,295.139 229.245,294.438 230.498 M281.481 229.532 C 281.481 229.738,278.786 233.575,278.005 234.482 C 277.214 235.400,277.172 235.353,277.684 234.126 C 278.707 231.678,281.481 228.322,281.481 229.532 M220.405 231.719 C 219.283 234.168,219.074 235.198,219.429 236.517 C 219.912 238.310,220.996 238.531,222.162 237.074 C 223.072 235.938,225.231 232.898,225.231 232.754 C 225.231 232.195,224.105 232.907,222.941 234.201 C 221.205 236.133,221.185 235.916,222.810 232.746 C 224.314 229.814,224.302 229.630,222.610 229.630 L 221.362 229.630 220.405 231.719 M274.769 230.369 C 274.769 231.072,274.264 232.639,274.037 232.639 C 273.666 232.639,273.704 231.255,274.103 230.269 C 274.387 229.566,274.769 229.623,274.769 230.369 M267.824 230.600 C 267.824 231.304,267.320 232.870,267.093 232.870 C 266.805 232.870,266.856 231.132,267.163 230.458 C 267.463 229.800,267.824 229.878,267.824 230.600 M249.537 230.516 C 249.537 230.775,246.973 234.407,246.078 235.417 L 245.359 236.227 245.724 235.301 C 246.774 232.638,249.537 229.171,249.537 230.516 M273.052 233.352 C 273.526 233.880,273.465 234.146,272.662 235.061 C 271.489 236.397,271.123 235.212,271.910 232.623 L 272.292 231.366 272.508 232.176 C 272.627 232.622,272.872 233.151,273.052 233.352 M266.222 233.703 C 266.553 234.101,266.328 234.756,265.638 235.404 C 264.570 236.408,264.253 235.213,264.961 232.855 L 265.338 231.597 265.655 232.499 C 265.829 232.995,266.084 233.537,266.222 233.703 M260.324 235.472 C 260.178 236.202,259.128 237.829,258.350 238.529 C 257.922 238.914,257.972 238.696,258.697 237.025 C 259.163 235.949,259.597 234.885,259.662 234.659 C 259.868 233.938,260.481 234.690,260.324 235.472 " stroke="none" fill="#f0831a" fill-rule="evenodd"></path><path id="path1" d="M235.818 51.199 C 230.221 54.236,228.368 59.338,229.185 69.469 C 229.643 75.142,229.744 75.012,231.251 66.817 C 232.405 60.540,234.395 56.901,237.442 55.491 C 237.933 55.264,237.963 55.113,237.963 52.856 C 237.963 50.058,237.946 50.045,235.818 51.199 M61.806 88.752 C 61.806 88.854,65.408 89.998,69.792 91.287 C 73.916 92.500,77.008 93.244,79.372 93.594 L 81.481 93.906 81.481 92.112 L 81.481 90.319 80.845 90.428 C 76.808 91.124,69.823 90.656,64.625 89.342 C 61.629 88.585,61.806 88.622,61.806 88.752 M81.458 99.869 C 81.403 99.924,80.943 100.024,80.436 100.092 C 78.279 100.377,75.040 101.263,72.569 102.244 C 69.820 103.336,66.806 104.849,61.458 107.824 C 52.672 112.711,46.777 114.815,41.868 114.815 C 37.624 114.815,44.521 116.407,51.002 116.924 C 58.729 117.540,67.691 116.289,74.257 113.678 C 76.864 112.642,80.497 111.446,81.300 111.360 C 81.421 111.347,81.699 99.767,81.578 99.768 C 81.567 99.768,81.513 99.814,81.458 99.869 M198.495 103.530 C 192.007 110.681,186.359 122.334,184.949 131.481 C 184.450 134.712,184.718 135.182,185.608 132.639 C 187.697 126.671,191.539 119.871,196.852 112.739 L 199.175 109.621 199.535 105.852 C 199.734 103.779,199.876 102.083,199.852 102.083 C 199.827 102.083,199.217 102.734,198.495 103.530 M236.896 108.223 C 235.355 108.383,231.813 108.687,229.026 108.899 C 216.637 109.840,214.205 110.547,213.760 113.337 C 213.210 116.787,216.311 117.990,222.106 116.573 C 223.869 116.142,237.109 112.437,239.641 111.666 C 240.059 111.539,240.287 107.827,239.873 107.901 C 239.777 107.918,238.438 108.063,236.896 108.223 M30.440 121.536 C 23.118 122.137,16.552 123.851,12.083 126.328 C 10.166 127.390,10.143 127.385,15.197 127.099 C 33.870 126.045,44.919 127.489,59.230 132.855 C 68.081 136.173,75.725 138.386,80.613 139.046 L 81.481 139.164 81.481 133.856 C 81.481 129.776,81.415 128.545,81.192 128.529 C 80.755 128.499,79.884 128.282,79.670 128.150 C 79.566 128.086,79.228 127.986,78.919 127.928 C 78.610 127.870,77.106 127.454,75.579 127.004 C 60.874 122.674,42.979 120.506,30.440 121.536 M241.088 126.856 C 228.052 127.034,227.226 127.226,227.226 130.087 C 227.226 133.314,230.105 133.834,239.468 132.294 C 244.325 131.496,252.522 130.290,253.183 130.277 C 253.674 130.267,253.704 130.171,253.704 128.584 C 253.704 126.734,253.586 126.581,252.238 126.668 C 251.835 126.694,246.817 126.779,241.088 126.856 M205.731 143.797 C 204.395 144.151,203.704 145.134,203.704 146.679 C 203.704 149.788,205.898 150.230,216.088 149.177 C 221.658 148.601,229.579 147.973,230.255 148.054 C 230.611 148.097,230.720 148.076,230.498 148.007 C 230.160 147.904,230.093 147.601,230.093 146.195 L 230.093 144.507 229.019 144.360 C 228.428 144.279,226.735 144.211,225.257 144.209 C 223.779 144.208,220.278 144.052,217.477 143.864 C 211.749 143.480,207.024 143.453,205.731 143.797 M78.241 148.362 C 74.234 149.759,71.712 150.724,71.811 150.823 C 71.853 150.866,73.344 150.641,75.122 150.324 C 78.871 149.656,79.987 149.483,80.787 149.447 C 81.239 149.427,81.382 149.281,81.439 148.782 C 81.625 147.166,81.658 147.171,78.241 148.362 M221.498 167.005 C 221.440 167.063,220.094 167.170,218.508 167.243 C 208.352 167.707,164.159 170.977,163.819 171.289 C 163.513 171.570,196.977 172.207,212.558 172.217 L 221.759 172.222 221.759 169.693 C 221.759 167.479,221.810 167.150,222.164 167.058 C 222.493 166.972,222.478 166.947,222.087 166.925 C 221.822 166.910,221.557 166.946,221.498 167.005 M127.702 186.032 C 127.680 186.052,126.723 186.230,125.574 186.428 C 124.426 186.625,121.989 187.217,120.158 187.742 C 114.300 189.423,108.641 190.313,101.678 190.647 L 98.380 190.806 98.380 191.711 C 98.380 194.664,100.802 195.920,106.254 195.793 C 108.034 195.751,109.491 195.728,109.491 195.741 C 109.491 195.753,108.499 197.807,107.286 200.305 L 105.081 204.846 103.562 205.315 C 97.905 207.063,95.130 206.086,96.153 202.707 C 96.526 201.478,96.287 201.350,95.526 202.370 C 93.177 205.516,96.207 209.259,101.103 209.259 C 102.045 209.259,102.782 209.349,102.739 209.459 C 102.697 209.569,101.753 211.574,100.641 213.915 C 97.815 219.869,97.466 222.948,99.246 226.220 C 100.814 229.101,101.813 229.132,102.469 226.320 C 103.318 222.675,106.050 216.474,109.678 209.954 L 111.030 207.523 112.517 207.134 C 115.188 206.435,117.004 206.673,118.408 207.906 C 119.412 208.787,119.624 208.449,119.247 206.569 C 118.785 204.267,117.544 203.247,114.975 203.053 C 114.096 202.987,113.669 202.861,113.743 202.691 C 113.805 202.548,114.303 201.441,114.851 200.231 C 115.744 198.258,115.847 197.850,115.851 196.249 L 115.856 194.467 117.477 194.076 C 118.368 193.861,120.972 193.172,123.264 192.544 C 125.556 191.916,127.684 191.352,127.993 191.291 C 128.981 191.095,128.953 191.178,129.293 187.441 L 129.435 185.877 128.588 185.936 C 128.123 185.969,127.724 186.012,127.702 186.032 M126.714 199.987 C 122.904 202.172,119.380 209.018,119.736 213.542 C 120.016 217.106,122.603 219.907,125.695 219.994 L 126.738 220.023 126.657 219.097 C 126.607 218.528,126.402 218.034,126.123 217.814 C 125.734 217.507,125.668 217.152,125.653 215.268 C 125.633 212.726,125.799 211.643,126.505 209.722 C 126.715 209.149,126.923 208.508,126.968 208.298 C 127.012 208.088,127.198 207.619,127.381 207.256 C 127.565 206.894,127.784 205.608,127.868 204.398 C 127.952 203.189,128.085 201.548,128.163 200.752 C 128.326 199.092,128.298 199.078,126.714 199.987 " stroke="none" fill="#f79d14" fill-rule="evenodd"></path><path id="path2" d="M253.251 55.638 C 253.241 57.755,253.283 57.970,253.834 58.624 C 254.695 59.648,255.718 61.781,256.155 63.465 C 256.716 65.630,256.763 65.717,256.953 64.931 C 257.720 61.758,256.465 57.007,254.171 54.394 L 253.260 53.356 253.251 55.638 M203.420 81.156 C 203.470 87.575,203.418 89.487,203.189 89.771 C 202.835 90.207,203.074 90.081,204.514 89.070 C 210.619 84.785,216.258 81.579,222.338 78.938 C 225.118 77.730,233.651 74.769,234.351 74.769 C 234.555 74.769,234.722 74.664,234.722 74.537 C 234.722 74.388,232.157 74.306,227.488 74.305 C 218.641 74.305,207.099 73.678,203.935 73.025 L 203.356 72.905 203.420 81.156 M225.810 86.502 C 225.556 86.559,224.566 86.813,223.611 87.064 L 221.875 87.522 221.816 88.542 L 221.756 89.562 223.552 88.499 C 224.539 87.915,225.790 87.246,226.331 87.014 C 227.711 86.420,227.421 86.135,225.810 86.502 M312.027 95.197 C 312.987 96.219,313.194 96.403,313.194 96.229 C 313.194 96.192,312.700 95.697,312.095 95.129 L 310.995 94.097 312.027 95.197 M290.278 95.384 C 288.177 95.614,286.224 95.810,285.938 95.818 C 285.499 95.831,285.417 95.962,285.417 96.648 C 285.417 97.373,285.474 97.450,285.938 97.347 C 286.224 97.283,288.412 96.870,290.800 96.429 C 295.292 95.600,295.700 95.486,295.476 95.123 C 295.309 94.853,294.963 94.870,290.278 95.384 M321.594 96.924 C 321.966 97.345,322.005 97.901,321.982 102.435 L 321.956 107.476 322.996 109.004 C 330.341 119.798,336.327 136.824,338.063 151.856 C 338.497 155.619,338.919 161.622,338.759 161.781 C 338.641 161.899,328.867 162.221,324.479 162.251 L 321.991 162.269 321.991 166.798 L 321.991 171.328 323.785 171.199 C 324.771 171.127,329.902 170.961,335.185 170.830 C 340.469 170.698,345.443 170.533,346.238 170.462 L 347.685 170.334 347.685 167.368 C 347.685 141.165,338.425 114.922,323.424 98.611 C 322.897 98.038,322.463 97.503,322.460 97.422 C 322.456 97.342,322.167 97.091,321.817 96.866 C 321.183 96.458,321.182 96.458,321.594 96.924 M293.403 97.929 C 292.766 98.033,290.674 98.346,288.753 98.626 C 285.310 99.126,285.262 99.141,285.366 99.684 C 285.424 99.987,285.354 100.375,285.211 100.547 C 285.025 100.772,285.818 100.675,288.020 100.205 C 289.707 99.845,292.208 99.324,293.576 99.048 C 295.668 98.626,296.065 98.478,296.065 98.116 C 296.065 97.634,295.464 97.592,293.403 97.929 M290.123 101.700 L 285.455 102.421 285.372 103.293 C 285.306 103.986,285.361 104.145,285.642 104.069 C 285.836 104.016,288.365 103.471,291.262 102.857 C 295.715 101.914,296.528 101.679,296.528 101.334 C 296.528 100.779,295.832 100.819,290.123 101.700 M291.088 104.751 C 288.032 105.305,285.518 105.765,285.500 105.773 C 285.482 105.781,285.425 106.152,285.373 106.599 L 285.278 107.411 286.100 107.259 C 289.308 106.665,296.879 104.461,296.948 104.100 C 296.990 103.882,296.939 103.713,296.834 103.724 C 296.729 103.735,294.144 104.197,291.088 104.751 M298.790 125.116 C 298.863 135.391,298.549 134.474,301.571 133.229 C 307.955 130.599,311.653 125.939,310.045 122.550 C 308.857 120.046,302.218 116.204,299.079 116.204 C 298.769 116.204,298.734 117.268,298.790 125.116 M279.167 143.278 L 275.579 143.403 275.579 146.787 L 275.579 150.170 277.129 149.740 C 282.756 148.180,287.500 145.193,287.500 143.209 C 287.500 143.049,285.217 143.068,279.167 143.278 M275.866 188.283 C 276.027 189.710,275.862 190.124,271.484 199.293 L 267.567 207.497 265.554 209.708 C 262.364 213.212,260.439 215.146,260.290 214.997 C 259.931 214.637,262.654 208.897,266.003 202.956 C 268.361 198.772,268.321 198.913,267.218 198.706 C 263.075 197.929,260.588 199.582,256.105 206.092 C 252.861 210.802,250.894 213.407,249.782 214.468 L 248.811 215.394 249.317 214.005 C 250.198 211.588,251.555 208.844,254.323 203.882 C 255.801 201.232,256.935 198.988,256.841 198.895 C 256.748 198.803,255.718 198.730,254.551 198.735 C 250.746 198.748,249.106 199.902,247.265 203.859 C 245.858 206.884,245.024 207.769,243.051 208.335 C 240.663 209.020,241.408 206.523,244.659 202.943 C 246.752 200.640,246.600 199.654,244.034 198.886 C 240.754 197.903,239.013 199.043,233.962 205.482 C 231.559 208.545,231.437 208.382,233.671 205.091 L 235.431 202.499 235.019 201.794 C 234.092 200.211,231.160 199.369,229.977 200.346 C 229.722 200.557,229.644 200.663,229.803 200.582 C 229.962 200.502,230.093 200.522,230.093 200.629 C 230.093 200.977,228.950 214.678,228.845 215.585 C 228.749 216.420,228.802 216.368,229.765 214.677 C 230.327 213.691,230.787 212.857,230.787 212.823 C 230.787 212.589,234.209 207.681,235.283 206.373 C 236.357 205.067,236.573 204.891,236.422 205.448 C 234.859 211.202,239.309 214.280,243.726 210.499 L 244.709 209.658 244.519 210.558 C 243.804 213.942,244.711 218.297,246.409 219.632 C 248.202 221.043,249.602 219.801,254.030 212.874 C 255.302 210.884,255.740 210.339,255.614 210.906 C 255.148 213.005,255.407 215.777,256.236 217.551 C 258.002 221.331,259.420 221.060,263.324 216.197 L 265.394 213.620 265.528 214.970 C 265.756 217.254,266.741 219.648,268.079 221.172 C 269.017 222.240,269.141 222.209,269.369 220.850 L 269.560 219.709 270.924 220.558 C 274.603 222.847,278.207 221.215,282.107 215.495 C 286.442 209.137,288.076 203.508,286.586 200.069 C 285.030 196.480,283.097 197.494,276.851 205.175 C 273.647 209.116,273.650 209.207,276.795 203.500 C 282.042 193.981,282.169 191.201,277.499 188.182 C 275.742 187.046,275.726 187.047,275.866 188.283 M296.236 188.283 C 296.399 189.727,296.276 190.028,291.065 200.950 C 288.478 206.374,286.255 211.269,286.126 211.829 C 285.412 214.923,286.264 218.430,288.354 221.007 C 289.357 222.244,289.518 222.238,289.711 220.949 C 289.898 219.706,289.918 219.703,291.453 220.657 C 295.063 222.901,298.838 221.030,302.770 215.046 C 307.001 208.608,308.442 203.443,306.953 200.048 C 305.405 196.518,303.693 197.366,297.703 204.630 C 294.712 208.257,294.435 208.523,295.303 206.944 C 301.391 195.861,302.026 194.084,300.861 191.379 C 300.390 190.286,298.506 188.387,297.264 187.753 C 296.046 187.132,296.103 187.102,296.236 188.283 M317.385 198.977 C 313.382 200.054,308.935 204.650,306.814 209.901 C 302.853 219.710,313.004 224.038,321.092 215.989 C 323.298 213.793,323.316 213.781,323.113 214.657 C 322.594 216.888,324.506 219.316,327.335 220.021 C 327.883 220.157,327.970 220.075,328.353 219.055 C 329.789 215.233,333.288 209.427,336.419 205.671 L 336.998 204.977 336.869 206.883 C 336.428 213.400,341.546 214.159,346.491 208.310 C 348.144 206.356,347.665 205.629,345.735 207.162 C 341.441 210.574,341.080 207.467,345.247 202.966 C 347.262 200.790,347.178 199.941,344.854 198.969 C 341.688 197.647,339.796 198.848,334.519 205.528 C 333.676 206.595,332.797 207.689,332.567 207.958 C 332.082 208.525,333.236 206.625,334.848 204.200 L 335.958 202.531 335.579 201.737 C 334.868 200.244,332.007 199.470,330.370 200.327 C 329.014 201.038,327.462 203.137,325.825 206.476 C 321.672 214.946,312.140 221.306,312.158 215.594 C 312.163 213.910,312.057 214.049,314.320 212.765 C 319.828 209.642,324.761 204.450,324.766 201.771 C 324.771 199.285,321.228 197.944,317.385 198.977 M321.883 202.018 C 321.388 203.992,317.106 208.852,313.551 211.476 L 312.634 212.153 313.516 210.532 C 316.329 205.362,320.369 200.816,321.698 201.326 C 321.916 201.410,321.978 201.640,321.883 202.018 M281.450 204.638 C 279.269 210.157,273.193 218.343,271.572 217.946 C 270.165 217.602,270.183 217.331,271.762 215.003 C 275.627 209.307,281.877 201.766,282.123 202.503 C 282.166 202.632,281.863 203.593,281.450 204.638 M301.869 204.549 C 299.780 209.962,293.570 218.345,291.943 217.946 C 290.510 217.595,290.545 217.366,292.478 214.545 C 296.388 208.835,302.252 201.779,302.491 202.496 C 302.534 202.626,302.254 203.550,301.869 204.549 " stroke="none" fill="#ec2d21" fill-rule="evenodd"></path><path id="path3" d="M241.856 51.536 L 241.782 53.819 244.502 53.819 L 247.222 53.819 247.222 51.938 C 247.222 49.529,247.145 49.462,244.202 49.344 L 241.930 49.253 241.856 51.536 M154.517 62.264 C 154.446 62.378,154.000 62.466,153.525 62.461 C 151.259 62.433,142.806 64.829,133.796 68.051 C 126.523 70.652,120.971 71.803,115.509 71.842 C 113.663 71.856,112.387 71.902,112.674 71.945 C 112.960 71.988,113.194 72.183,113.194 72.379 C 113.194 72.731,113.044 72.727,111.653 72.336 C 111.419 72.269,111.568 72.375,111.985 72.569 C 112.980 73.033,116.965 74.170,119.444 74.697 C 122.880 75.428,127.461 75.268,132.523 74.242 C 144.124 71.889,149.484 72.881,151.954 77.838 C 155.151 84.252,145.665 85.931,130.093 81.706 C 123.960 80.042,118.733 79.260,114.931 79.438 L 113.310 79.514 113.248 84.186 C 113.186 88.808,113.179 88.859,112.669 88.966 C 112.385 89.025,112.778 89.065,113.542 89.054 C 117.583 88.995,124.652 90.803,128.584 92.901 C 138.960 98.436,126.228 110.211,113.542 106.813 C 113.082 106.690,113.079 106.787,113.140 121.052 L 113.201 135.416 114.876 134.332 C 115.797 133.736,117.697 132.502,119.097 131.591 C 132.636 122.781,136.313 123.869,134.161 136.050 C 132.724 144.185,131.307 145.052,121.759 143.641 C 119.531 143.311,116.958 142.996,116.040 142.940 C 115.123 142.884,114.107 142.771,113.783 142.690 L 113.194 142.542 113.194 148.376 C 113.194 154.516,113.228 154.705,114.261 154.404 C 114.346 154.379,114.484 154.469,114.568 154.604 C 115.129 155.513,121.141 156.572,125.810 156.585 C 132.838 156.604,136.744 155.266,143.056 150.678 C 149.115 146.273,149.994 145.941,151.449 147.506 C 152.323 148.446,153.387 150.469,153.277 150.984 C 153.257 151.079,153.333 151.157,153.445 151.157 C 153.625 151.157,153.802 151.701,154.353 153.935 C 155.503 158.597,153.642 159.253,139.236 159.261 C 127.268 159.268,121.673 159.624,115.235 160.790 L 113.225 161.154 113.152 163.332 L 113.079 165.510 116.134 165.510 C 123.372 165.509,127.970 166.616,137.269 170.603 C 145.536 174.146,148.282 174.686,154.688 174.024 L 155.324 173.958 155.324 118.138 C 155.324 60.437,155.331 60.946,154.517 62.264 M256.713 69.642 C 256.038 69.785,256.251 69.843,257.986 69.989 C 264.730 70.557,272.043 71.980,277.967 73.878 C 279.176 74.265,280.670 74.713,281.286 74.873 L 282.407 75.164 282.406 73.867 L 282.404 72.569 280.715 72.044 C 275.164 70.319,260.463 68.847,256.713 69.642 M211.250 92.365 C 207.349 94.644,205.754 96.054,205.674 97.295 C 205.464 100.524,205.238 102.488,205.031 102.894 C 204.719 103.503,205.140 103.160,207.871 100.584 C 208.953 99.562,210.531 98.086,211.377 97.303 C 213.017 95.785,212.978 95.876,213.315 92.766 C 213.492 91.130,213.395 91.111,211.250 92.365 M266.402 103.135 C 265.797 103.444,261.113 104.499,256.134 105.446 C 254.352 105.785,252.737 106.121,252.546 106.193 C 252.355 106.264,252.095 106.308,251.968 106.289 C 251.829 106.269,251.768 106.767,251.815 107.526 C 251.872 108.435,251.812 108.796,251.603 108.796 C 251.443 108.796,251.366 108.850,251.432 108.916 C 251.498 108.982,253.052 108.777,254.885 108.459 C 258.214 107.882,266.088 106.703,267.072 106.634 C 267.566 106.599,267.592 106.501,267.592 104.726 C 267.593 102.715,267.489 102.577,266.402 103.135 M276.099 125.025 C 274.348 125.258,271.223 125.582,269.154 125.745 L 265.394 126.042 265.324 127.524 L 265.254 129.006 267.623 128.851 C 273.372 128.474,279.310 128.227,279.778 128.344 C 280.840 128.610,281.019 128.325,281.019 126.364 L 281.019 124.537 280.150 124.569 C 279.673 124.587,277.850 124.792,276.099 125.025 M111.750 142.756 C 112.038 142.812,112.455 142.810,112.676 142.752 C 112.898 142.694,112.662 142.648,112.153 142.651 C 111.644 142.654,111.462 142.701,111.750 142.756 M249.653 143.759 C 241.258 143.968,241.898 143.757,241.898 146.321 C 241.898 147.809,241.818 148.382,241.609 148.389 C 241.450 148.394,241.640 148.538,242.033 148.708 C 242.425 148.879,243.519 149.693,244.463 150.516 C 247.370 153.050,247.721 153.141,253.581 152.897 L 257.639 152.728 257.639 148.123 L 257.639 143.519 256.887 143.558 C 256.473 143.580,253.218 143.670,249.653 143.759 M274.306 164.134 C 272.332 164.235,266.082 164.542,260.417 164.814 C 254.751 165.087,249.569 165.415,248.900 165.542 L 247.685 165.774 247.685 169.022 L 247.685 172.270 264.178 172.142 C 273.249 172.072,281.062 171.945,281.539 171.861 L 282.407 171.709 282.407 167.846 L 282.407 163.983 280.150 163.966 C 278.909 163.958,276.279 164.033,274.306 164.134 M175.481 187.997 C 175.997 188.961,172.205 198.842,170.710 200.427 C 170.668 200.472,170.159 200.181,169.579 199.781 C 167.451 198.318,165.109 197.972,163.288 198.853 C 161.468 199.734,157.603 204.325,155.916 207.607 C 155.696 208.036,155.122 208.817,154.639 209.344 C 153.729 210.337,153.420 211.609,153.453 214.236 C 153.459 214.745,153.388 215.042,153.294 214.895 C 153.201 214.748,153.132 215.695,153.141 216.999 C 153.164 220.322,153.910 221.528,155.945 221.528 C 157.024 221.528,159.266 219.338,163.175 214.464 C 164.501 212.811,165.646 211.385,165.721 211.296 C 165.796 211.207,165.856 212.197,165.856 213.495 C 165.856 216.354,166.323 217.907,167.580 219.228 C 169.584 221.335,171.148 220.087,177.670 211.178 C 181.248 206.290,181.035 206.715,179.919 206.707 C 179.094 206.701,178.839 206.918,174.816 211.047 C 172.021 213.915,170.632 215.197,170.730 214.815 C 171.051 213.575,172.758 209.946,174.214 207.407 C 181.342 194.979,181.828 193.442,179.564 190.475 C 178.312 188.834,174.782 186.691,175.481 187.997 M169.285 202.342 C 169.793 203.154,159.188 217.130,158.063 217.130 C 156.835 217.130,161.782 208.141,165.248 204.075 C 167.078 201.928,168.613 201.269,169.285 202.342 M152.544 210.190 C 152.406 210.447,152.356 210.760,152.434 210.884 C 152.615 211.177,153.241 211.179,153.241 210.887 C 153.241 210.764,153.084 210.723,152.894 210.796 C 152.485 210.953,152.457 210.785,152.786 210.170 C 152.918 209.924,152.973 209.722,152.910 209.722 C 152.846 209.722,152.681 209.933,152.544 210.190 " stroke="none" fill="#f46f1c" fill-rule="evenodd"></path><path id="path4" d="M246.933 49.798 C 247.118 49.986,247.222 50.791,247.222 52.028 C 247.222 53.510,247.155 53.924,246.933 53.796 C 246.774 53.704,246.721 53.715,246.816 53.820 C 246.912 53.925,247.521 54.198,248.171 54.427 C 249.463 54.882,251.304 55.991,252.486 57.026 L 253.241 57.687 253.241 55.485 L 253.241 53.284 252.141 52.384 C 250.448 50.998,245.887 48.733,246.933 49.798 M159.226 61.577 C 156.315 61.855,154.728 62.092,155.035 62.203 C 155.265 62.286,155.324 73.688,155.324 118.162 L 155.324 174.018 156.789 173.711 C 158.715 173.307,162.709 172.036,163.368 171.617 C 163.860 171.304,163.889 171.132,163.891 168.571 C 163.916 140.586,178.658 109.721,200.289 92.365 C 201.785 91.165,203.009 90.094,203.009 89.985 C 203.009 89.876,203.110 89.850,203.233 89.926 C 203.375 90.014,203.438 86.981,203.406 81.570 C 203.363 74.234,203.309 73.067,203.009 73.004 C 202.818 72.964,201.464 72.717,200.000 72.456 C 193.194 71.240,188.493 69.616,184.458 67.089 C 176.877 62.340,169.072 60.634,159.226 61.577 M281.539 72.292 L 282.407 72.535 282.407 73.878 L 282.407 75.220 281.814 74.994 C 279.830 74.240,281.147 74.966,283.449 75.896 C 297.450 81.552,310.100 91.309,319.076 103.375 C 320.205 104.893,321.278 106.255,321.460 106.403 C 321.641 106.550,321.757 106.724,321.717 106.788 C 321.676 106.853,321.725 106.987,321.825 107.087 C 321.924 107.187,321.995 104.908,321.982 102.023 L 321.959 96.778 318.386 93.315 C 308.067 83.313,297.153 76.819,283.917 72.807 C 282.435 72.358,281.099 72.004,280.947 72.020 C 280.795 72.036,281.062 72.159,281.539 72.292 M150.463 76.042 C 150.895 76.487,151.300 76.852,151.364 76.852 C 151.428 76.852,151.126 76.487,150.694 76.042 C 150.263 75.596,149.857 75.231,149.793 75.231 C 149.730 75.231,150.031 75.596,150.463 76.042 M219.488 88.314 C 216.576 89.360,212.820 91.204,213.166 91.418 C 213.452 91.594,213.164 95.322,212.821 95.876 C 212.582 96.262,213.092 95.921,214.815 94.540 C 215.642 93.877,217.517 92.480,218.981 91.434 C 221.302 89.778,221.666 89.428,221.822 88.707 C 222.083 87.497,221.864 87.460,219.488 88.314 M280.440 96.434 C 269.378 97.750,269.125 97.842,268.300 100.881 C 268.151 101.430,267.827 102.081,267.579 102.328 C 267.101 102.806,266.976 103.132,267.361 102.894 C 267.509 102.802,267.593 103.500,267.593 104.822 C 267.593 106.815,267.614 106.900,268.147 107.033 C 268.452 107.110,268.999 107.545,269.362 107.999 C 271.193 110.289,271.148 110.263,273.000 110.123 C 275.035 109.969,285.001 107.688,285.240 107.322 C 285.463 106.978,285.466 105.785,285.243 105.793 C 285.148 105.796,283.663 106.049,281.944 106.355 C 279.233 106.838,278.775 106.868,278.480 106.581 C 277.888 106.003,278.627 105.622,281.597 104.979 C 285.243 104.188,285.417 104.110,285.417 103.246 C 285.417 102.402,285.582 102.411,281.577 103.029 C 278.359 103.526,277.778 103.507,277.778 102.909 C 277.778 102.391,278.293 102.208,281.713 101.510 C 285.100 100.819,285.417 100.679,285.417 99.870 C 285.417 99.083,285.393 99.081,281.366 99.669 C 277.420 100.244,276.390 100.125,277.323 99.202 C 277.569 98.958,284.454 97.454,285.322 97.454 C 285.374 97.454,285.417 97.089,285.417 96.644 C 285.417 96.198,285.339 95.845,285.243 95.859 C 285.148 95.872,282.986 96.131,280.440 96.434 M290.825 116.431 C 287.063 117.417,283.970 119.752,282.022 123.077 C 281.620 123.763,281.211 124.138,280.708 124.284 C 280.131 124.451,280.087 124.500,280.498 124.516 C 281.110 124.541,281.326 128.078,280.729 128.319 C 280.570 128.383,280.711 128.444,281.042 128.454 C 281.475 128.467,281.973 128.851,282.822 129.827 C 286.197 133.708,291.547 135.448,297.180 134.498 L 298.843 134.217 298.843 125.373 C 298.843 118.802,298.771 116.456,298.565 116.250 C 298.103 115.789,292.802 115.912,290.825 116.431 M263.137 143.458 L 257.639 143.527 257.639 148.102 L 257.639 152.677 260.012 152.499 C 265.035 152.122,273.468 150.858,275.100 150.238 L 275.707 150.007 275.643 146.705 L 275.579 143.403 272.106 143.396 C 270.197 143.392,266.160 143.419,263.137 143.458 M153.620 151.852 C 153.779 152.757,154.103 153.704,154.254 153.704 C 154.349 153.704,153.813 151.748,153.587 151.273 C 153.527 151.146,153.542 151.406,153.620 151.852 M154.167 156.685 C 154.167 156.839,153.900 157.232,153.575 157.557 C 153.249 157.883,153.113 158.106,153.271 158.053 C 153.688 157.914,154.511 156.749,154.325 156.562 C 154.238 156.475,154.167 156.531,154.167 156.685 M315.625 162.520 C 294.995 163.247,283.373 163.699,282.928 163.791 C 282.413 163.897,282.407 163.939,282.407 167.814 L 282.407 171.730 281.655 171.841 C 280.612 171.996,299.172 171.786,309.838 171.523 C 314.676 171.403,319.389 171.289,320.313 171.268 L 321.991 171.231 321.991 166.750 L 321.991 162.269 321.354 162.304 C 321.004 162.324,318.426 162.421,315.625 162.520 M213.657 185.770 C 205.072 188.419,192.140 208.108,192.131 218.545 C 192.128 222.782,195.219 226.400,199.619 227.309 C 202.496 227.903,204.501 226.831,209.237 222.165 C 210.562 220.859,211.575 219.989,211.488 220.231 C 210.574 222.784,211.430 227.022,213.376 229.578 C 214.098 230.526,213.993 230.702,214.703 227.339 C 215.475 223.683,216.154 221.797,217.859 218.570 C 220.228 214.086,220.881 211.613,220.297 209.329 L 220.107 208.588 220.855 208.802 C 221.266 208.920,221.859 209.254,222.173 209.543 L 222.745 210.069 222.632 208.413 C 222.306 203.648,220.074 203.431,212.037 207.383 C 207.593 209.568,205.901 210.045,204.811 209.419 C 203.906 208.900,203.795 209.035,204.150 210.222 C 205.021 213.129,207.420 213.409,212.653 211.216 C 215.647 209.962,215.559 209.874,213.789 212.354 C 203.774 226.379,194.324 228.802,198.488 216.277 C 201.824 206.245,213.435 190.046,217.291 190.046 C 220.178 190.046,212.077 201.569,208.305 202.826 C 207.855 202.976,208.462 203.836,209.248 204.162 C 212.946 205.694,218.574 201.687,221.021 195.782 C 223.411 190.014,219.063 184.103,213.657 185.770 M228.397 201.601 C 224.378 205.898,221.396 215.399,223.318 217.783 C 225.459 220.440,228.009 220.573,228.009 218.027 C 228.009 217.788,228.131 217.593,228.279 217.593 C 228.428 217.593,228.485 217.528,228.406 217.449 C 228.327 217.370,228.410 217.159,228.589 216.980 C 228.769 216.800,228.850 216.483,228.770 216.275 C 228.688 216.060,228.721 215.956,228.847 216.034 C 228.978 216.114,229.036 215.866,228.988 215.435 C 228.943 215.030,229.173 211.577,229.500 207.760 C 229.826 203.944,230.093 200.758,230.093 200.681 C 230.093 200.229,229.255 200.684,228.397 201.601 " stroke="none" fill="#ec4e1c" fill-rule="evenodd"></path></g></svg>